HIERARCHY
ROOT Hips
{
  OFFSET 0 0.240689 0
  CHANNELS 6 Xposition Yposition Zposition Zrotation Xrotation Yrotation
  JOINT Bip01_Spine0
  {
    OFFSET 0 -24.7459 49.7988
    CHANNELS 6 Xposition Yposition Zposition Zrotation Xrotation Yrotation
    JOINT Bip01_Pelvis
    {
      OFFSET 0 0 0
      CHANNELS 6 Xposition Yposition Zposition Zrotation Xrotation Yrotation
      JOINT Bip01_Spine0_Tail
      {
        OFFSET -6.47486 -3.86022 0
        CHANNELS 6 Xposition Yposition Zposition Zrotation Xrotation Yrotation
        JOINT Bip01_Spine0_Tail1
        {
          OFFSET 10.3837 -0.00825882 0
          CHANNELS 6 Xposition Yposition Zposition Zrotation Xrotation Yrotation
          JOINT Bip01_Spine0_Tail2
          {
            OFFSET 10.3837 -0.00826263 0
            CHANNELS 6 Xposition Yposition Zposition Zrotation Xrotation Yrotation
            JOINT Bip01_Spine0_Tail3
            {
              OFFSET 10.3837 -0.00825882 0
              CHANNELS 6 Xposition Yposition Zposition Zrotation Xrotation Yrotation
              JOINT Bip01_Spine0_Tail4
              {
                OFFSET 10.3837 -0.00826263 0
                CHANNELS 6 Xposition Yposition Zposition Zrotation Xrotation Yrotation
                End Site
                {
                  OFFSET 0 0 0
                }
              }
            }
          }
        }
      }
      JOINT Bip01_R_Thigh
      {
        OFFSET 0 -1.52588e-005 -8.75617
        CHANNELS 6 Xposition Yposition Zposition Zrotation Xrotation Yrotation
        JOINT Bip01_R_Calf
        {
          OFFSET 19.7638 0 0
          CHANNELS 6 Xposition Yposition Zposition Zrotation Xrotation Yrotation
          JOINT Bip01_R_Foot
          {
            OFFSET 18.6534 0 0
            CHANNELS 6 Xposition Yposition Zposition Zrotation Xrotation Yrotation
            JOINT Bip01_R_Toe0
            {
              OFFSET 5.09145 13.9567 0
              CHANNELS 6 Xposition Yposition Zposition Zrotation Xrotation Yrotation
              JOINT Bip01_R_Toe01
              {
                OFFSET 4.28803 0 0
                CHANNELS 6 Xposition Yposition Zposition Zrotation Xrotation Yrotation
                JOINT Bip01_R_Toe02
                {
                  OFFSET 3.85801 0 0
                  CHANNELS 6 Xposition Yposition Zposition Zrotation Xrotation Yrotation
                  End Site
                  {
                    OFFSET 0 0 0
                  }
                }
              }
            }
          }
        }
      }
      JOINT Bip01_L_Thigh
      {
        OFFSET 0 1.52588e-005 8.75617
        CHANNELS 6 Xposition Yposition Zposition Zrotation Xrotation Yrotation
        JOINT Bip01_L_Calf
        {
          OFFSET 19.7638 0 0
          CHANNELS 6 Xposition Yposition Zposition Zrotation Xrotation Yrotation
          JOINT Bip01_L_Foot
          {
            OFFSET 18.6534 0 0
            CHANNELS 6 Xposition Yposition Zposition Zrotation Xrotation Yrotation
            JOINT Bip01_L_Toe0
            {
              OFFSET 5.09144 13.9567 0
              CHANNELS 6 Xposition Yposition Zposition Zrotation Xrotation Yrotation
              JOINT Bip01_L_Toe01
              {
                OFFSET 4.28802 0 0
                CHANNELS 6 Xposition Yposition Zposition Zrotation Xrotation Yrotation
                JOINT Bip01_L_Toe02
                {
                  OFFSET 3.85801 0 0
                  CHANNELS 6 Xposition Yposition Zposition Zrotation Xrotation Yrotation
                  End Site
                  {
                    OFFSET 0 0 0
                  }
                }
              }
            }
          }
        }
      }
      JOINT Bip01_Spine
      {
        OFFSET 9.14835 -0.00640869 -1.1e-005
        CHANNELS 6 Xposition Yposition Zposition Zrotation Xrotation Yrotation
        JOINT Bip01_Spine1
        {
          OFFSET 8.04366 -0.00638199 0
          CHANNELS 6 Xposition Yposition Zposition Zrotation Xrotation Yrotation
          JOINT Bip01_Spine2
          {
            OFFSET 8.04367 -0.00639343 0
            CHANNELS 6 Xposition Yposition Zposition Zrotation Xrotation Yrotation
            JOINT Bip01_Spine3
            {
              OFFSET 8.04304 -0.00831222 0
              CHANNELS 6 Xposition Yposition Zposition Zrotation Xrotation Yrotation
              JOINT Bip01_Neck
              {
                OFFSET 10.6685 1.06813 0
                CHANNELS 6 Xposition Yposition Zposition Zrotation Xrotation Yrotation
                JOINT Bip01_R_Clavicle
                {
                  OFFSET -3.21661 -4.89635 -9.04802
                  CHANNELS 6 Xposition Yposition Zposition Zrotation Xrotation Yrotation
                  JOINT Bip01_R_UpperArm
                  {
                    OFFSET 19.0492 0 0
                    CHANNELS 6 Xposition Yposition Zposition Zrotation Xrotation Yrotation
                    JOINT Bip01_R_Forearm
                    {
                      OFFSET 10.3706 0 0
                      CHANNELS 6 Xposition Yposition Zposition Zrotation Xrotation Yrotation
                      JOINT Bip01_R_Hand
                      {
                        OFFSET 22.8632 0 0
                        CHANNELS 6 Xposition Yposition Zposition Zrotation Xrotation Yrotation
                        JOINT Bip01_R_Finger0
                        {
                          OFFSET 6.48259 0.103651 0.504496
                          CHANNELS 6 Xposition Yposition Zposition Zrotation Xrotation Yrotation
                          JOINT Bip01_R_Finger01
                          {
                            OFFSET 3.66847 0 0
                            CHANNELS 6 Xposition Yposition Zposition Zrotation Xrotation Yrotation
                            End Site
                            {
                              OFFSET 0 0 0
                            }
                          }
                        }
                      }
                    }
                  }
                }
                JOINT Bip01_L_Clavicle
                {
                  OFFSET -3.21661 -4.89641 9.04797
                  CHANNELS 6 Xposition Yposition Zposition Zrotation Xrotation Yrotation
                  JOINT Bip01_L_UpperArm
                  {
                    OFFSET 19.0492 0 0
                    CHANNELS 6 Xposition Yposition Zposition Zrotation Xrotation Yrotation
                    JOINT Bip01_L_Forearm
                    {
                      OFFSET 10.3706 0 0
                      CHANNELS 6 Xposition Yposition Zposition Zrotation Xrotation Yrotation
                      JOINT Bip01_L_Hand
                      {
                        OFFSET 22.8631 0 0
                        CHANNELS 6 Xposition Yposition Zposition Zrotation Xrotation Yrotation
                        JOINT Bip01_L_Finger0
                        {
                          OFFSET 6.48257 0.103655 -0.504492
                          CHANNELS 6 Xposition Yposition Zposition Zrotation Xrotation Yrotation
                          JOINT Bip01_L_Finger01
                          {
                            OFFSET 3.66844 0 0
                            CHANNELS 6 Xposition Yposition Zposition Zrotation Xrotation Yrotation
                            End Site
                            {
                              OFFSET 0 0 0
                            }
                          }
                        }
                      }
                    }
                  }
                }
                JOINT Bip01_Neck1
                {
                  OFFSET 7.52459 -0.00656509 0
                  CHANNELS 6 Xposition Yposition Zposition Zrotation Xrotation Yrotation
                  JOINT Bip01_Neck2
                  {
                    OFFSET 8.4783 -0.00588226 0
                    CHANNELS 6 Xposition Yposition Zposition Zrotation Xrotation Yrotation
                    JOINT Bip01_Head
                    {
                      OFFSET 8.41606 0 0
                      CHANNELS 6 Xposition Yposition Zposition Zrotation Xrotation Yrotation
                      JOINT EyesBlue
                      {
                        OFFSET 0 0 0
                        CHANNELS 6 Xposition Yposition Zposition Zrotation Xrotation Yrotation
                        JOINT EyesBlue_2
                        {
                          OFFSET 0 -0.500007 0
                          CHANNELS 6 Xposition Yposition Zposition Zrotation Xrotation Yrotation
                          End Site
                          {
                            OFFSET 0 0 0
                          }
                        }
                      }
                      JOINT Bip01_Head2_Eyeleds
                      {
                        OFFSET 6.52751 7.61746 2.2e-005
                        CHANNELS 6 Xposition Yposition Zposition Zrotation Xrotation Yrotation
                        End Site
                        {
                          OFFSET 0 0 0
                        }
                      }
                      JOINT Bip01_Head_Muzzle
                      {
                        OFFSET 2.88628 13.9448 3.88994
                        CHANNELS 6 Xposition Yposition Zposition Zrotation Xrotation Yrotation
                        End Site
                        {
                          OFFSET 0 0 0
                        }
                      }
                      JOINT Bip01_Head1_Jaw
                      {
                        OFFSET 0.271065 1.32405 0
                        CHANNELS 6 Xposition Yposition Zposition Zrotation Xrotation Yrotation
                        JOINT _Bip01_Head11_TungeControler
                        {
                          OFFSET 4.61616 5.82872 0
                          CHANNELS 6 Xposition Yposition Zposition Zrotation Xrotation Yrotation
                          JOINT _Bip01_Ponytail3_tunge
                          {
                            OFFSET 5.17785 2.98805 0
                            CHANNELS 6 Xposition Yposition Zposition Zrotation Xrotation Yrotation
                            JOINT Bip01_Ponytail31
                            {
                              OFFSET 5.57569 0 0
                              CHANNELS 6 Xposition Yposition Zposition Zrotation Xrotation Yrotation
                              JOINT Bip01_Ponytail32
                              {
                                OFFSET 2.93165 0 0
                                CHANNELS 6 Xposition Yposition Zposition Zrotation Xrotation Yrotation
                                JOINT Bip01_Ponytail3Nub
                                {
                                  OFFSET 3.30155 0 0
                                  CHANNELS 6 Xposition Yposition Zposition Zrotation Xrotation Yrotation
                                  End Site
                                  {
                                    OFFSET 0 0 0
                                  }
                                }
                              }
                            }
                          }
                        }
                        JOINT Bip01_Head_JawNub
                        {
                          OFFSET 15.5776 -0.000389099 0
                          CHANNELS 6 Xposition Yposition Zposition Zrotation Xrotation Yrotation
                          End Site
                          {
                            OFFSET 0 0 0
                          }
                        }
                      }
                      JOINT Bip01_Ponytail2
                      {
                        OFFSET 9.40334 1.03973 -6.51764
                        CHANNELS 6 Xposition Yposition Zposition Zrotation Xrotation Yrotation
                        JOINT Bip01_Ponytail21
                        {
                          OFFSET 2.77018 -0.00640106 1.33514e-005
                          CHANNELS 6 Xposition Yposition Zposition Zrotation Xrotation Yrotation
                          End Site
                          {
                            OFFSET 0 0 0
                          }
                        }
                      }
                      JOINT Bip01_Ponytail1
                      {
                        OFFSET 9.40368 1.03969 6.51768
                        CHANNELS 6 Xposition Yposition Zposition Zrotation Xrotation Yrotation
                        JOINT Bip01_Ponytail11
                        {
                          OFFSET 2.77018 -0.00640487 0
                          CHANNELS 6 Xposition Yposition Zposition Zrotation Xrotation Yrotation
                          End Site
                          {
                            OFFSET 0 0 0
                          }
                        }
                      }
                    }
                  }
                }
              }
            }
          }
        }
      }
    }
  }
}
MOTION
Frames:	3
Frame Time:	0.0333333
0 0 -166 -0 -90 -0 0.000869 -28.7004 64.1662 88.74 -0.00609868 137.169 -1.90735e-006 -4.76837e-007 0 -90 -3.50835e-015 -90 -6.47521 -3.85979 -6.46114e-005 -163.707 -0.796241 0.614277 10.3809 -0.00787353 4.98295e-005 52.6967 -0.918581 0.662392 10.3808 -0.00772857 4.19617e-005 52.3615 -0.918105 0.662312 10.3808 -0.00788116 4.9473e-005 52.3615 -0.918142 0.662304 10.3808 -0.00770568 4.22001e-005 52.3615 -0.918137 0.662298 5.68434e-014 -1.90735e-005 -8.75617 -165.172 -5.79989 172.959 19.7638 -8.52651e-014 -5.72205e-006 -97.5998 -7.18213e-005 0.0010687 18.6534 -1.52588e-005 -1.90735e-006 14.9557 -19.1096 -16.6805 5.09136 13.9567 -7.50162e-006 78.2365 10.6824 14.731 4.28805 1.52588e-005 1.90735e-006 2.81865 -1.8223e-005 -1.65448e-005 3.85794 -2.28882e-005 1.90735e-006 -45 -8.86247e-006 8.78147e-006 1.52588e-005 1.14441e-005 8.75617 -155.772 -5.61513 -178.344 19.7638 -1.52588e-005 -7.62939e-006 -93.7557 -4.0459e-005 0.00121253 18.6534 -1.77636e-013 1.90735e-006 18.5505 9.66388 7.99491 5.09143 13.9567 -1.03835e-005 68.7218 3.53781 -13.6704 4.288 1.52588e-005 5.72204e-006 42 7.91784e-006 3.26913e-006 3.85797 -1.14441e-005 3.8147e-006 -2.5 -1.83614e-005 -1.25848e-006 9.14772 -0.00627136 2.07424e-005 -25.5594 0.000326764 0.000809504 8.0441 -0.0062809 0.000103951 -3.17297 0.00135388 0.00163735 8.04445 -0.00632095 9.67981e-005 0.299999 0.000841557 0.000957983 8.04245 -0.00820923 9.06007e-006 -4.74605 0.000819661 0.000835639 10.6677 1.06844 2.34172e-006 -1.1429 0.00182102 0.00132605 -4.17542 -4.11039 -9.04789 -178.902 -74.4174 109.253 19.0492 -6.19888e-006 3.05176e-005 71.9292 26.9797 -93.3425 10.3705 7.81597e-014 -3.8147e-006 -97.9612 0.00023531 -0.00345952 22.8631 2.28882e-005 7.6294e-006 1.82695 7.12143 15.2481 6.48253 0.103683 0.504486 -40.9689 -9.77836 -12.0842 3.66846 -7.62939e-006 2.86102e-006 40.107 5.40944e-006 9.46382e-006 -4.17532 -4.11025 9.04776 -178.901 74.4165 -118.545 19.0491 5.72204e-006 1.52588e-005 77.9806 -17.0018 96.5396 10.3706 1.52588e-005 -7.6294e-006 -105.406 0.000585503 -0.00430977 22.8631 1.13687e-013 3.8147e-006 23.453 -19.1477 -8.28158 6.4826 0.103622 -0.504501 -56.9003 6.05023 14.288 3.66845 -1.14441e-005 -9.53674e-006 40.107 4.494e-007 5.50254e-006 7.52849 -0.00618744 2.47958e-005 -4.51601 0.000299258 0.000516647 8.47661 -0.00644684 3.00415e-005 7.29969 0.00171065 0.00169865 8.41606 -2.28882e-005 7.09655e-013 -117.008 -3.36836 27.7648 -7.6294e-006 -8.52651e-014 -3.33786e-006 -23.1098 1.37701e-015 90 1.42269e-006 -0.5 1.14575e-005 -180 90 -90 -3.8147e-006 0 1.77636e-015 -104.125 -1.52588e-005 -180 7.02636 13.7652 3.88787 -22.989 1.3702e-015 90 -3.8147e-006 0 1.77636e-015 -67.73 3.05176e-005 -180 -3.05176e-005 1.98952e-013 -4.76837e-007 -105.167 -1.49218e-005 2.76409e-006 3.05176e-005 1.52588e-005 9.53675e-007 122.125 0.688991 -6.63428 1.52588e-005 2.64644e-005 1.90734e-006 -10.7787 0.753885 -7.18103 3.05176e-005 -3.33786e-006 -1.43051e-006 -17.65 -1.48211e-005 -1.10596e-005 -1.3074e-012 1.52588e-005 -4.76842e-007 -26.1943 -9.09966e-006 -8.80084e-006 15.5776 -0.000389099 -7.62955e-006 -4.39666e-033 -1.26725e-015 -1.98785e-016 9.40586 1.04111 -6.51594 70.3401 -28.9453 146.584 2.76727 -0.00307846 -0.00497436 -39.6036 50.8656 39.8733 9.40619 1.04103 6.51597 70.3402 28.9457 -146.584 2.7673 -0.00311279 0.00496673 -39.6036 -50.8656 -39.8732 
0 0 -170.666 -0 -90 -0 0.000869 -28.7004 61.3327 88.7399 -0.00642315 133.02 -1.90735e-006 -4.76837e-007 -3.55271e-014 -90 -3.50835e-015 -90 -6.47521 -3.85979 -6.46114e-005 -163.249 -0.636934 -2.97554 10.3809 -0.00787353 4.98294e-005 53.078 -0.760355 -2.9334 10.3808 -0.00772857 4.19615e-005 52.7434 -0.760705 -2.93317 10.3808 -0.00788116 4.94712e-005 52.7434 -0.760672 -2.93312 10.3808 -0.00770568 4.22003e-005 52.7434 -0.760704 -2.93317 4.26326e-014 -1.90735e-005 -8.75617 -169.391 -7.05735 169.078 19.7638 -2.55795e-013 -5.72205e-006 -92.391 -2.38804e-005 0.00106715 18.6534 -1.52588e-005 -1.90735e-006 18.2364 -26.5681 -13.4794 5.09136 13.9567 -7.18525e-006 79.3234 10.963 14.5177 4.28805 1.52588e-005 1.90735e-006 4.11305 -1.92103e-005 -1.63116e-005 3.85795 -2.28882e-005 1.90735e-006 -45 -7.32256e-006 1.04805e-005 1.52588e-005 1.14441e-005 8.75617 -158.309 -7.14152 -177.283 19.7638 -1.52588e-005 -7.6294e-006 -88.6908 1.28611e-005 0.00121234 18.6534 -2.84217e-014 1.90735e-006 21.48 9.66707 6.03621 5.09143 13.9567 -1.04671e-005 68.7261 3.53228 -13.6686 4.288 1.52588e-005 5.72204e-006 42 1.55942e-005 3.50489e-006 3.85797 -1.14441e-005 3.8147e-006 -2.5 -1.90556e-005 -1.60474e-006 9.14772 -0.00627136 2.07424e-005 -25.0813 0.00033386 0.000806756 8.0441 -0.0062809 0.000103951 -1.6745 0.00139616 0.00160141 8.04445 -0.00632095 9.67981e-005 1.7986 0.00086603 0.000935685 8.04245 -0.00820923 9.06007e-006 -4.16204 0.000828018 0.000827265 10.6677 1.06844 2.34424e-006 -1.75206 0.00180712 0.00134531 -4.13142 -4.15455 -9.04789 -178.295 -74.4174 109.235 19.0492 -6.19888e-006 3.05176e-005 70.2307 11.563 -88.3204 10.3705 -2.62901e-013 -3.8147e-006 -108.409 0.000555783 -0.0034654 22.8631 2.28882e-005 7.6294e-006 -0.0403791 8.15174 15.3757 6.48253 0.103683 0.504486 -46.8712 -8.47947 -13.0216 3.66846 -7.62939e-006 2.86102e-006 40.107 1.26586e-005 3.0079e-006 -4.13129 -4.15438 9.04776 -178.292 74.4165 -118.544 19.0491 5.72204e-006 1.52588e-005 76.2812 -2.23853 90.7888 10.3706 1.52588e-005 -7.62939e-006 -114.999 0.000965072 -0.00429672 22.8631 5.68434e-014 3.8147e-006 17.6454 -19.5785 -7.30367 6.4826 0.103622 -0.504501 -60.0575 5.24259 14.6015 3.66845 -1.14441e-005 -9.53674e-006 40.107 -1.58086e-005 1.84953e-005 7.52849 -0.00618744 2.47958e-005 -5.66444 0.000292738 0.000522389 8.47661 -0.00644684 3.0042e-005 6.38245 0.00168 0.00172623 8.41606 -2.28882e-005 1.02451e-012 -117.257 -2.55446 31.5742 -7.6294e-006 -8.52651e-014 -3.33786e-006 -23.1098 1.37701e-015 90 1.42007e-006 -0.5 1.14601e-005 180 90 -90 -3.8147e-006 -2.84217e-014 0 -104.306 -1.52588e-005 -180 7.19349 13.7623 3.88787 -22.989 1.3702e-015 90 -3.8147e-006 -2.84217e-014 0 -72.1205 6.10352e-005 -180 -3.05176e-005 5.75539e-013 -4.76837e-007 -108.939 -3.04597e-005 4.49637e-005 3.05176e-005 1.52588e-005 9.53676e-007 120.668 0.774668 -7.47305 1.52588e-005 2.64644e-005 1.90735e-006 -14.9678 1.00063 -9.59125 3.05176e-005 -3.33786e-006 -1.43051e-006 -17.65 -1.5867e-005 -1.15388e-005 -9.37918e-013 1.52588e-005 -4.76843e-007 -26.1943 -7.88659e-006 -9.00409e-006 15.5776 -0.000389099 -7.62986e-006 1.59028e-015 3.77691e-015 -0 9.40586 1.04111 -6.51594 70.3401 -28.9453 146.584 2.76727 -0.00307846 -0.00497436 -39.6036 50.8656 39.8733 9.40619 1.04103 6.51597 70.3402 28.9457 -146.584 2.7673 -0.00311279 0.00496673 -39.6036 -50.8656 -39.8732 
0 0 -174.86 -0 -90 -0 0.000869 -28.7004 58.4618 88.7406 -0.00637204 128.488 -1.90735e-006 -4.76837e-007 -2.84217e-014 -90 -3.50835e-015 -90 -6.47521 -3.85979 -6.46114e-005 -163.621 -0.386866 -11.0713 10.3809 -0.00787353 4.98291e-005 52.485 -0.490376 -11.0443 10.3808 -0.00772857 4.19611e-005 52.1511 -0.491512 -11.0443 10.3808 -0.00788116 4.94696e-005 52.1511 -0.491342 -11.044 10.3808 -0.00770568 4.22007e-005 52.1511 -0.491524 -11.0443 0 -1.90735e-005 -8.75617 -170.654 -7.66073 166.58 19.7638 -2.55795e-013 -5.72205e-006 -84.5055 5.43973e-005 0.00106664 18.6534 -1.52588e-005 -1.90735e-006 18.9892 -29.7392 -9.45704 5.09136 13.9567 -7.22924e-006 80.1404 11.1278 14.2768 4.28805 1.52588e-005 1.90735e-006 5.17061 -2.10406e-005 -1.63378e-005 3.85795 -2.28882e-005 1.90735e-006 -45 -3.74561e-006 1.3868e-005 1.52588e-005 1.14441e-005 8.75617 -159.107 -8.16862 -176.082 19.7638 -1.52588e-005 -7.6294e-006 -82.7754 7.46596e-005 0.00121286 18.6534 2.84217e-014 1.90735e-006 21.8882 8.71177 4.57956 5.09143 13.9567 -1.02914e-005 68.78 3.46701 -13.6434 4.288 1.52588e-005 5.72204e-006 42 2.19635e-005 3.92175e-006 3.85797 -1.14441e-005 3.8147e-006 -2.5 -1.89141e-005 -1.90276e-006 9.14772 -0.00627136 2.07424e-005 -24.517 0.000342512 0.00080344 8.0441 -0.0062809 0.000103951 0.0146612 0.00144243 0.0015596 8.04445 -0.00632095 9.67982e-005 3.48773 0.000892764 0.000909809 8.04245 -0.00820923 9.06006e-006 -3.58671 0.000836125 0.000818935 10.6677 1.06844 2.34857e-006 -2.42285 0.00179157 0.00136635 -4.08249 -4.20261 -9.04789 -177.626 -74.4168 109.248 19.0492 -6.19888e-006 3.05176e-005 69.6316 -2.44104 -92.7822 10.3705 -4.9738e-012 -3.8147e-006 -116.985 0.000867862 -0.00352504 22.8631 2.28882e-005 7.6294e-006 -3.21658 9.17653 15.5028 6.48253 0.103683 0.504486 -52.7904 -7.07852 -13.8236 3.66846 -7.62939e-006 2.86102e-006 40.107 5.26076e-006 9.30601e-006 -4.08224 -4.20247 9.04776 -177.622 74.4167 -118.547 19.0491 5.72204e-006 1.52588e-005 74.9975 13.5275 94.6492 10.3706 1.52588e-005 -7.62936e-006 -122.659 0.00122251 -0.00417201 22.8631 0 3.8147e-006 10.4385 -19.9278 -6.29924 6.4826 0.103622 -0.504501 -63.1155 4.44266 14.8622 3.66845 -1.14441e-005 -9.53674e-006 40.107 -4.19652e-006 9.45107e-006 7.52849 -0.00618744 2.47959e-005 -6.63938 0.000291234 0.000527099 8.47661 -0.00644684 3.00428e-005 5.53835 0.00164811 0.00175148 8.41606 -2.28882e-005 1.50813e-012 -117.638 -1.46477 35.0943 -7.6294e-006 -8.52651e-014 -3.33786e-006 -23.1098 1.37701e-015 90 1.41678e-006 -0.5 1.14631e-005 180 90 -90 -3.8147e-006 -5.68434e-014 3.55271e-015 -104.488 7.01671e-015 -180 7.36062 13.7595 3.88787 -22.989 1.3702e-015 90 -3.8147e-006 -5.68434e-014 3.55271e-015 -76.511 1.52588e-005 -180 -3.05176e-005 2.41584e-013 -4.76837e-007 -112.71 -1.75102e-005 4.0612e-006 3.05176e-005 1.52588e-005 9.53676e-007 124.959 0.521464 -5.0067 1.52588e-005 2.64644e-005 1.90735e-006 -9.46125 0.675638 -6.42562 3.05176e-005 -3.33786e-006 -1.43051e-006 -17.65 1.92209e-005 -7.03438e-007 -1.08003e-012 1.52588e-005 -4.76843e-007 -26.1943 -1.30976e-005 -9.46031e-006 15.5776 -0.000389099 -7.62957e-006 1.59028e-015 2.03754e-015 -1.59028e-015 9.40586 1.04111 -6.51594 70.3401 -28.9453 146.584 2.76727 -0.00307846 -0.00497436 -39.6036 50.8656 39.8733 9.40619 1.04103 6.51597 70.3402 28.9457 -146.584 2.7673 -0.00311279 0.00496673 -39.6036 -50.8656 -39.8732 
